<svg xmlns="http://www.w3.org/2000/svg" version="1.1" id="OSCam" class="OSCam_logo" width="40px" height="40px" viewBox="0 0 40 40"><g><path d="M11.277 6.81c-1.871 0-2.987 0.945-3.518 2.474 -0.223 0.695-0.335 1.641-0.335 4.336 0 2.667 0.112 3.641 0.335 4.336 0.53 1.528 1.647 2.474 3.518 2.474 1.897 0 3.014-0.945 3.544-2.474 0.223-0.695 0.334-1.668 0.334-4.336 0-2.697-0.112-3.642-0.334-4.336C14.29 7.756 13.174 6.81 11.277 6.81z"/><path d="M38 2H2v23.548h36v-2.462c-2.072-2.542-3.314-5.782-3.314-9.312 0-3.529 1.24-6.77 3.314-9.312V2zM18.003 18.818c-0.977 3-3.433 4.558-6.726 4.558 -3.267-0.001-5.722-1.558-6.699-4.559 -0.391-1.168-0.502-2.224-0.502-5.197 0-2.975 0.111-4.03 0.502-5.198 0.977-3.001 3.433-4.558 6.699-4.558 3.293 0 5.749 1.557 6.726 4.558 0.391 1.167 0.503 2.224 0.503 5.198C18.506 16.594 18.394 17.65 18.003 18.818zM26.436 23.374c-2.795 0.001-5.502-1.11-6.98-2.499 -0.112-0.111-0.168-0.277-0.056-0.417l1.731-2.001c0.112-0.139 0.279-0.139 0.392-0.028 1.229 0.973 3.041 2.001 5.162 2.001 2.262 0 3.573-1.14 3.573-2.724 0-1.362-0.837-2.251-3.46-2.613l-1.004-0.139c-3.656-0.5-5.722-2.251-5.722-5.393 0-3.418 2.512-5.698 6.42-5.698 2.372 0 4.632 0.75 6.14 1.89 0.141 0.111 0.168 0.222 0.057 0.389l-1.34 2.057c-0.111 0.139-0.252 0.167-0.391 0.083 -1.535-1-2.959-1.474-4.549-1.474 -1.926 0-2.987 1.057-2.987 2.529 0 1.306 0.921 2.196 3.488 2.558l1.006 0.139c3.655 0.5 5.666 2.224 5.666 5.476C33.581 20.873 31.152 23.374 26.436 23.374z"/><path d="M2.323 35.053C2.107 34.43 2 33.656 2 32.559s0.107-1.871 0.323-2.494c0.626-1.935 2.311-2.945 4.513-2.945 1.792 0 3.196 0.816 3.951 1.957 0.064 0.107 0.064 0.216-0.043 0.302l-1.878 1.226c-0.129 0.086-0.238 0.064-0.324-0.043 -0.454-0.623-0.907-0.902-1.663-0.902 -0.799 0-1.382 0.365-1.619 1.117 -0.151 0.432-0.195 0.925-0.195 1.785 0 0.858 0.043 1.354 0.195 1.783 0.237 0.754 0.82 1.118 1.619 1.118 0.756 0 1.208-0.278 1.663-0.901 0.086-0.109 0.194-0.129 0.324-0.043l1.878 1.225c0.108 0.087 0.108 0.193 0.043 0.301C10.032 37.184 8.628 38 6.836 38 4.634 37.999 2.95 36.988 2.323 35.053z"/><path d="M18.018 37.764c-0.13 0-0.216-0.089-0.216-0.218v-0.688H17.78c-0.54 0.688-1.446 1.141-2.872 1.141 -1.856 0-3.477-0.968-3.477-3.184 0-2.299 1.749-3.354 4.34-3.354h1.856c0.087 0 0.13-0.042 0.13-0.128v-0.388c0-0.967-0.476-1.418-2.138-1.418 -1.058 0-1.834 0.301-2.332 0.666 -0.108 0.087-0.216 0.065-0.281-0.043l-0.972-1.698c-0.064-0.128-0.043-0.236 0.065-0.302 0.885-0.623 2.159-1.032 3.886-1.032 3.412 0 4.642 1.162 4.642 3.763v6.665c0 0.129-0.086 0.218-0.216 0.218H18.018zM17.759 34.3v-0.709c0-0.087-0.044-0.13-0.13-0.13h-1.468c-1.273 0-1.856 0.365-1.856 1.184 0 0.729 0.518 1.097 1.511 1.097C17.111 35.741 17.759 35.268 17.759 34.3z"/><path d="M34.927 37.764c-0.13 0-0.215-0.089-0.215-0.218V31.57c0-1.141-0.562-1.893-1.644-1.893 -1.035 0-1.617 0.752-1.617 1.893v5.977c0 0.129-0.088 0.217-0.217 0.217h-2.59c-0.131 0-0.217-0.088-0.217-0.217V31.57c0-1.141-0.539-1.893-1.619-1.893 -1.037 0-1.641 0.752-1.641 1.893v5.977c0 0.129-0.087 0.217-0.216 0.217h-2.591c-0.131 0-0.217-0.088-0.217-0.217V27.57c0-0.127 0.086-0.215 0.217-0.215h2.591c0.129 0 0.216 0.088 0.216 0.215v0.73h0.021c0.475-0.645 1.36-1.183 2.699-1.183 1.273 0 2.203 0.452 2.807 1.312h0.021c0.778-0.816 1.813-1.312 3.282-1.312 2.462 0 3.734 1.569 3.734 3.87v6.558c0 0.129-0.086 0.218-0.217 0.218H34.927z"/></g></svg>